# xmcd
#
# Track frame offsets:
#	150
#	10328
#	17901
#	29191
#	39328
#	49286
#	58733
#	68750
#	82275
#	94116
#	103452
#	110328
#	120368
#	130290
#	139859
#	148565
#	157494
#	169265
#	183526
#
# Disc length: 2584 seconds
#
# Revision: 1
# Processed by: cddbd v1.5.1PL0 Copyright (c) Steve Scherf et al.
# Submitted via: audiograbber 1.83.01
#
DISCID=220a1613
DTITLE=Webb Acheson - Old Time Fiddle Tunes
DYEAR=2003
DGENRE=Instrumental
TTITLE0=Bon Soo Reel (Webb)
TTITLE1=Hurricane Hazel (Mel Levine)
TTITLE2=Up Country (Don Messer)
TTITLE3=Apple Cider Polka (Andy DeJarlis)
TTITLE4=McPhail's Tune (Trad)
TTITLE5=Montebello Reel (Webb)
TTITLE6=Catfish Jig (Trad)
TTITLE7=Clarenet Polka (Trad)
TTITLE8=Jaclyn's Waltz (Calvin Vollrath)
TTITLE9=Randy's Reel (Webb)
TTITLE10=Lesterville Rag (Brian Sclar)
TTITLE11=Crooked Stovepipe (Trad)
TTITLE12=French Jig (Unknown)
TTITLE13=Alabama Jubilee (Trad)
TTITLE14=Koehlers Reel (Trad)
TTITLE15=Sir Wilfred Laurier (G. Townsend)
TTITLE16=Don Carswell Waltz (Webb)
TTITLE17=Step Dance Set: Andy's Schottische (Andy DeJarlis), Dungannon Sweethea
TTITLE17=rt (G. Townsend), Concert Reel (John Durocher), White Rapids Reel (Mat
TTITLE17=ilda Murdock)
TTITLE18=Reel De Faubert (Trad)
EXTD=
EXTT0=
EXTT1=
EXTT2=
EXTT3=
EXTT4=
EXTT5=
EXTT6=
EXTT7=
EXTT8=
EXTT9=
EXTT10=
EXTT11=
EXTT12=
EXTT13=
EXTT14=
EXTT15=
EXTT16=
EXTT17=
EXTT18=
PLAYORDER=
